<?xml version="1.0" encoding="utf-8"?>
<!-- Generator: Adobe Illustrator 16.2.1, SVG Export Plug-In . SVG Version: 6.00 Build 0)  -->
<!DOCTYPE svg PUBLIC "-//W3C//DTD SVG 1.1//EN" "http://www.w3.org/Graphics/SVG/1.1/DTD/svg11.dtd">
<svg version="1.1" id="Layer_1" xmlns="http://www.w3.org/2000/svg" xmlns:xlink="http://www.w3.org/1999/xlink" x="0px" y="0px"
	 width="211.029px" height="109.489px" viewBox="0 0 211.029 109.489" enable-background="new 0 0 211.029 109.489"
	 xml:space="preserve">
<path fill="#FFFFFF" d="M68.858,68.548h-6.262v3.942h5.145c0.147,0,0.293,0.106,0.293,0.271v1.078c0,0.161-0.146,0.271-0.273,0.271
	h-5.166v5.568c0,0.129-0.108,0.275-0.274,0.275h-1.37c-0.125,0-0.272-0.131-0.272-0.275V67.196c0-0.149,0.128-0.272,0.272-0.272
	h7.889c0.145,0,0.292,0.108,0.292,0.272v1.075C69.132,68.442,68.985,68.548,68.858,68.548"/>
<path fill="#FFFFFF" d="M77.599,80.098h-1.096c-2.592,0-4.088-1.423-4.088-4.069v-5.18c0-2.594,1.496-4.054,4.088-4.054h1.096
	c2.627,0,4.088,1.46,4.088,4.054v5.18C81.687,78.675,80.226,80.098,77.599,80.098 M79.769,70.849c0-1.68-0.729-2.447-2.445-2.447
	h-0.547c-1.697,0-2.445,0.768-2.445,2.447v5.18c0,1.733,0.73,2.445,2.445,2.445h0.547c1.717,0,2.445-0.712,2.445-2.445V70.849z"/>
<path fill="#FFFFFF" d="M94.131,79.954h-1.568c-0.129,0-0.328-0.109-0.4-0.275l-2.082-3.67c-0.072,0-0.143,0.019-0.199,0.019h-2.992
	v3.651c0,0.164-0.109,0.275-0.275,0.275h-1.367c-0.166,0-0.275-0.109-0.275-0.275V67.196c0-0.149,0.109-0.272,0.275-0.272h4.891
	c2.625,0,4.086,1.439,4.086,4.067v0.95c0,1.897-0.766,3.191-2.188,3.738l2.262,3.995C94.386,79.845,94.279,79.954,94.131,79.954
	 M92.306,70.991c0-1.714-0.729-2.443-2.426-2.443h-2.992v5.836h2.973c1.717,0,2.445-0.725,2.445-2.44V70.991z"/>
<path fill="#FFFFFF" d="M102.435,80.098h-1.096c-2.535,0-3.979-1.35-4.07-3.797c0-0.162,0.129-0.273,0.273-0.273h1.352
	c0.164,0,0.273,0.109,0.273,0.273c0.094,1.516,0.822,2.173,2.445,2.173h0.551c2.023,0,2.443-0.73,2.443-1.917v-0.254
	c0-1.13-0.332-1.715-3.121-2.191c-3.594-0.6-4.088-2.299-4.088-3.646v-0.295c0-1.057,0.438-1.933,1.203-2.537
	c0.73-0.564,1.754-0.837,3.012-0.837h0.551c2.371,0,3.773,1.206,4.014,3.396c0.018,0.161-0.109,0.275-0.275,0.275h-1.348
	c-0.15,0-0.24-0.112-0.279-0.275c-0.182-1.241-0.928-1.789-2.389-1.789c-1.186,0-2.574,0.311-2.574,1.77v0.295
	c0,1.019,1.004,1.712,2.975,2.04c2.355,0.404,4.238,0.987,4.238,3.798v0.256C106.525,78.163,105.793,80.098,102.435,80.098"/>
<path fill="#FFFFFF" d="M117.043,79.954h-5.447c-0.145,0-0.273-0.131-0.273-0.275v-1.077c0-0.146,0.107-0.273,0.273-0.273h1.785
	v-9.78h-1.514c-0.145,0-0.273-0.106-0.273-0.275v-1.075c0-0.149,0.111-0.272,0.273-0.272h4.902c0.131,0,0.273,0.107,0.273,0.272
	v1.075c0,0.167-0.127,0.275-0.273,0.275h-1.475v9.78h1.748c0.129,0,0.275,0.106,0.275,0.273v1.077
	C117.318,79.81,117.189,79.954,117.043,79.954"/>
<path fill="#FFFFFF" d="M131.347,79.954h-1.404c-0.129,0-0.275-0.109-0.275-0.275v-3.123c0-1.716-0.73-2.445-2.428-2.445h-2.994
	v5.568c0,0.164-0.109,0.275-0.271,0.275h-1.373c-0.16,0-0.27-0.109-0.27-0.275V67.196c0-0.149,0.107-0.272,0.27-0.272h1.373
	c0.146,0,0.271,0.108,0.271,0.272v5.295h2.939l1.553-5.295c0.051-0.149,0.162-0.272,0.311-0.272h1.512
	c0.131,0,0.184,0.123,0.146,0.272l-1.604,5.494c1.59,0.509,2.482,1.824,2.482,3.864v3.122
	C131.584,79.845,131.472,79.954,131.347,79.954"/>
<path fill="#FFFFFF" d="M143.826,79.954h-1.568c-0.125,0-0.328-0.109-0.398-0.275l-2.082-3.67c-0.074,0-0.146,0.019-0.199,0.019
	h-2.996v3.651c0,0.164-0.107,0.275-0.273,0.275h-1.369c-0.162,0-0.273-0.109-0.273-0.275V67.196c0-0.149,0.109-0.272,0.273-0.272
	h4.893c2.629,0,4.084,1.439,4.084,4.067v0.95c0,1.897-0.764,3.191-2.186,3.738l2.264,3.995
	C144.084,79.845,143.974,79.954,143.826,79.954 M142.004,70.991c0-1.714-0.73-2.443-2.426-2.443h-2.996v5.836h2.975
	c1.717,0,2.445-0.725,2.445-2.44v-0.952H142.004z"/>
<path fill="#FFFFFF" d="M154.322,79.954h-5.453c-0.148,0-0.279-0.131-0.279-0.275v-1.077c0-0.146,0.109-0.273,0.279-0.273h1.783
	v-9.78h-1.512c-0.146,0-0.271-0.106-0.271-0.275v-1.075c0-0.149,0.104-0.272,0.271-0.272h4.906c0.129,0,0.275,0.107,0.275,0.272
	v1.075c0,0.167-0.127,0.275-0.275,0.275h-1.479v9.78h1.754c0.129,0,0.275,0.106,0.275,0.273v1.077
	C154.595,79.81,154.467,79.954,154.322,79.954"/>
<path fill="#FFFFFF" d="M168.373,79.954h-1.352c-0.16,0-0.346-0.109-0.4-0.275l-5.295-9.089v9.089c0,0.129-0.125,0.275-0.27,0.275
	h-1.371c-0.146,0-0.293-0.131-0.293-0.275V67.196c0-0.149,0.146-0.272,0.275-0.272h1.369c0.164,0,0.328,0.123,0.418,0.272
	l5.295,9.069v-9.069c0-0.149,0.127-0.272,0.271-0.272h1.352c0.148,0,0.291,0.108,0.291,0.272v12.483
	C168.664,79.81,168.537,79.954,168.373,79.954"/>
<path fill="#FFFFFF" d="M177.004,80.098h-1.094c-2.592,0-4.09-1.44-4.09-4.087v-5.164c0-2.593,1.498-4.053,4.09-4.053h1.094
	c2.393,0,3.797,1.206,4.051,3.394c0,0.128-0.146,0.277-0.271,0.277h-1.369c-0.145,0-0.273-0.131-0.273-0.277
	c-0.184-1.221-0.949-1.787-2.408-1.787h-0.553c-1.695,0-2.443,0.767-2.443,2.446v5.164c0,1.732,0.732,2.463,2.443,2.463h0.553
	c1.715,0,2.443-0.73,2.443-2.463v-1.9h-2.443c-0.131,0-0.275-0.11-0.275-0.271v-1.078c0-0.143,0.145-0.271,0.275-0.271h4.084
	c0.164,0,0.277,0.106,0.277,0.271v3.25C181.094,78.657,179.635,80.098,177.004,80.098"/>
<path fill="#FFFFFF" d="M21.504,36.797c3.983,3.712,6.089,5.378,7.092,6.467c1.809-0.664,5.601-2.488,6.869-6.119
	c1.446-4.127-1.08-6.957-3.262-9.198c-2.532-2.553-7.402-6.113-8.894-7.933c-1.536,0.944-4.877,2.276-6.294,6.322
	C15.309,31.198,18.149,33.674,21.504,36.797"/>
<path fill="#FFFFFF" d="M12.227,35.762c-2.302-3.216-2.672-6.79-1.542-10.005c1.995-5.695,7.912-7.628,9.722-8.566
	c-0.352-0.542-0.959-1.34-1.382-2.459c-0.335-0.816-0.53-1.763-0.53-2.772c0-2.144,0.862-4,2.121-4.931
	C12.031,8.855,4.579,14.968,1.469,23.854C-3.278,37.393,3.857,52.22,17.402,56.965c1.238,0.438,2.491,0.773,3.749,1.011
	c3.147-0.463,4.134-1.776,4.879-3.897C28.4,47.307,16.615,41.747,12.227,35.762"/>
<path fill="#FFFFFF" d="M34.589,7.917c-1.42-0.496-2.855-0.767-4.291-1.011c-2.173,0.418-2.886,1.53-3.485,3.246
	c-2.605,7.428,9.905,12.092,13.826,18.094c1.917,2.985,2.455,6.345,1.413,9.312c-1.964,5.618-9.47,8.588-10.94,8.814
	c0.661,0.932,2.648,2.723,2.875,5.519c0.05,0.384,0.081,0.776,0.081,1.182c0,1.705-0.469,3.255-1.232,4.432
	c7.959-2.177,14.755-8.096,17.689-16.472C55.269,27.489,48.138,12.665,34.589,7.917"/>
<path fill="#FFFFFF" d="M89.299,6.806c-1.486,0-2.744,1.255-2.744,2.742c0,0,0,14.804,0,17.688c-2.576,0-12.834,0-15.41,0
	c0-2.884,0-17.688,0-17.688c0-1.563-1.181-2.742-2.747-2.742h-5.025c-1.489,0-2.745,1.255-2.745,2.742v45.813
	c0,1.463,1.28,2.748,2.745,2.748h5.025c1.489,0,2.747-1.261,2.747-2.748c0,0,0-15.776,0-18.688c2.58,0,12.896,0,15.477,0
	c0,2.911,0,18.688,0,18.688c0,1.539,1.205,2.748,2.744,2.748h5.023c1.463,0,2.74-1.283,2.74-2.748V9.548
	c0-1.536-1.232-2.742-2.807-2.742H89.299"/>
<path fill="#FFFFFF" d="M105.25,6.806c-1.488,0-2.746,1.255-2.746,2.742v45.813c0,1.463,1.283,2.748,2.746,2.748h26.201
	c1.436,0,2.744-1.31,2.744-2.748v-3.953c0-1.515-1.264-2.745-2.812-2.745c0,0-15.461,0-18.363,0c0-2.392,0-9.596,0-11.989
	c2.771,0,14.412,0,14.412,0c1.438,0,2.742-1.31,2.742-2.749V29.98c0-1.514-1.26-2.744-2.811-2.744c0,0-11.58,0-14.344,0
	c0-2.324,0-8.664,0-10.991c2.902,0,18.432,0,18.432,0c1.484,0,2.744-1.258,2.744-2.742V9.548c0-1.512-1.264-2.742-2.812-2.742
	H105.25"/>
<path fill="#FFFFFF" d="M142.029,6.806c-1.463,0-2.744,1.281-2.744,2.742v45.813c0,1.487,1.287,2.748,2.811,2.748h21.979
	c1.488,0,2.744-1.261,2.744-2.748v-3.953c0-1.537-1.205-2.745-2.744-2.745c0,0-11.514,0-14.279,0c0-3.189,0-39.115,0-39.115
	c0-1.536-1.205-2.742-2.74-2.742H142.029"/>
<path fill="#FFFFFF" d="M191.136,6.806h-17.953c-1.463,0-2.744,1.281-2.744,2.742v45.813c0,1.463,1.281,2.748,2.744,2.748h5.027
	c1.459,0,2.744-1.283,2.744-2.748c0,0,0-9.023,0-11.659c2.535,0,10.182,0,10.182,0c10.641,0,16.746-6.077,16.746-16.67v-3.482
	C207.883,12.91,201.777,6.806,191.136,6.806 M197.301,27c0,5.439-1.807,7.264-7.17,7.264c0,0-6.723,0-9.178,0V16.245
	c2.455,0,9.178,0,9.178,0c5.342,0,7.24,1.911,7.24,7.3C197.371,23.602,197.301,27,197.301,27z"/>
<g>
	<path fill="#FFFFFF" d="M90.459,99.752l3.023-7.63h0.797l3.023,7.63h-0.74l-0.807-2.068h-3.795l-0.801,2.068H90.459z
		 M92.195,97.048h3.303l-1.627-4.299L92.195,97.048z"/>
	<path fill="#FFFFFF" d="M98.797,99.752h-0.625v-4.169c0-0.231-0.02-0.609-0.051-1.14h0.646c0.021,0.302,0.029,0.576,0.029,0.829
		c0.395-0.666,0.957-0.994,1.691-0.994c0.598,0,1.049,0.188,1.359,0.562c0.309,0.38,0.465,0.917,0.465,1.619v3.292h-0.627v-3.4
		c0-0.474-0.121-0.841-0.365-1.101c-0.24-0.259-0.574-0.386-1-0.386c-0.479,0-0.854,0.166-1.121,0.506
		c-0.268,0.338-0.402,0.775-0.402,1.307V99.752z"/>
	<path fill="#FFFFFF" d="M106.158,99.752l3.02-7.63h0.799l3.021,7.63h-0.738l-0.809-2.068h-3.793l-0.803,2.068H106.158z
		 M107.892,97.048h3.305l-1.631-4.299L107.892,97.048z"/>
	<path fill="#FFFFFF" d="M114.105,99.752v-7.63h2.488c0.846,0,1.477,0.172,1.895,0.513c0.42,0.34,0.627,0.841,0.627,1.501
		c0,0.413-0.137,0.764-0.41,1.053c-0.275,0.292-0.639,0.49-1.084,0.594c0.418,0.071,0.727,0.231,0.93,0.479
		c0.203,0.25,0.334,0.69,0.393,1.323l0.094,1.004c0.053,0.581,0.154,0.968,0.305,1.163h-0.795c-0.1-0.217-0.172-0.548-0.217-1.001
		l-0.102-1.133c-0.062-0.639-0.193-1.049-0.398-1.221c-0.203-0.175-0.547-0.264-1.027-0.264h-0.121h-1.895v3.618H114.105z
		 M114.787,95.496h1.572c0.723,0,1.24-0.109,1.551-0.326c0.318-0.218,0.479-0.566,0.479-1.043c0-0.458-0.143-0.803-0.424-1.026
		c-0.283-0.229-0.701-0.343-1.252-0.343h-1.926V95.496z"/>
	<path fill="#FFFFFF" d="M120.107,99.752l3.025-7.63h0.797l3.021,7.63h-0.74l-0.805-2.068h-3.797l-0.801,2.068H120.107z
		 M121.844,97.048h3.307l-1.629-4.299L121.844,97.048z"/>
	<path fill="#FFFFFF" d="M131.084,96.49v-0.637h2.531v3.58c-0.814,0.318-1.709,0.479-2.674,0.479c-1.047,0-1.855-0.361-2.428-1.085
		c-0.57-0.725-0.857-1.688-0.857-2.891c0-1.138,0.293-2.084,0.879-2.839c0.586-0.758,1.363-1.136,2.334-1.136
		c0.756,0,1.379,0.202,1.875,0.612c0.496,0.406,0.76,0.896,0.791,1.462h-0.777c-0.029-0.383-0.213-0.718-0.551-1.001
		c-0.336-0.292-0.779-0.437-1.328-0.437c-0.809,0-1.424,0.322-1.854,0.97c-0.426,0.643-0.639,1.433-0.639,2.368
		c0,1.104,0.248,1.938,0.746,2.498c0.5,0.559,1.193,0.839,2.078,0.839c0.469,0,1.043-0.106,1.727-0.316V96.49H131.084z"/>
	<path fill="#FFFFFF" d="M141.603,98.094h0.68c-0.049,0.537-0.248,0.978-0.598,1.315c-0.348,0.34-0.824,0.509-1.432,0.509
		c-0.719,0-1.289-0.262-1.705-0.786c-0.416-0.522-0.621-1.203-0.621-2.035c0-0.812,0.211-1.483,0.633-2.015
		c0.426-0.536,0.996-0.804,1.715-0.804c0.588,0,1.072,0.175,1.445,0.529c0.375,0.351,0.562,0.784,0.562,1.294h-0.68
		c-0.01-0.368-0.133-0.667-0.367-0.897c-0.232-0.228-0.58-0.339-1.047-0.339c-0.496,0-0.889,0.22-1.164,0.663
		c-0.281,0.441-0.422,0.965-0.422,1.568c0,0.627,0.148,1.16,0.441,1.593c0.295,0.428,0.691,0.641,1.189,0.641
		c0.404,0,0.727-0.126,0.977-0.382C141.463,98.69,141.594,98.405,141.603,98.094z"/>
	<path fill="#FFFFFF" d="M143.135,97.097c0-0.844,0.225-1.523,0.676-2.044c0.451-0.516,1.043-0.774,1.771-0.774
		c0.779,0,1.389,0.271,1.824,0.812c0.439,0.541,0.656,1.209,0.656,2.006c0,0.85-0.229,1.528-0.689,2.049
		c-0.459,0.514-1.057,0.772-1.791,0.772c-0.742,0-1.336-0.274-1.781-0.822C143.357,98.552,143.135,97.884,143.135,97.097z
		 M143.814,97.097c0,0.603,0.164,1.125,0.49,1.571c0.328,0.439,0.758,0.662,1.297,0.662c0.586,0,1.025-0.229,1.326-0.689
		c0.305-0.459,0.457-0.972,0.457-1.544c0-0.64-0.166-1.17-0.49-1.595c-0.326-0.426-0.756-0.637-1.297-0.637
		c-0.562,0-1,0.22-1.312,0.663C143.97,95.97,143.814,96.493,143.814,97.097z"/>
	<path fill="#FFFFFF" d="M149.941,99.752h-0.627v-4.169c0-0.231-0.016-0.609-0.051-1.14h0.65c0.02,0.302,0.027,0.576,0.027,0.829
		c0.391-0.666,0.953-0.994,1.699-0.994c0.414,0,0.775,0.12,1.08,0.363c0.309,0.236,0.502,0.504,0.59,0.797
		c0.469-0.772,1.08-1.16,1.832-1.16c0.588,0,1.041,0.186,1.354,0.554c0.318,0.368,0.475,0.914,0.475,1.628v3.292h-0.627v-3.4
		c0-0.474-0.123-0.841-0.365-1.101c-0.24-0.259-0.572-0.386-1-0.386c-0.479,0-0.854,0.169-1.123,0.512
		c-0.266,0.338-0.398,0.77-0.398,1.295v3.08h-0.629v-3.4c0-0.474-0.119-0.841-0.363-1.101c-0.24-0.259-0.574-0.386-1-0.386
		c-0.48,0-0.854,0.169-1.123,0.512c-0.266,0.338-0.4,0.775-0.4,1.31V99.752z"/>
	<path fill="#FFFFFF" d="M159.156,95.273c0.436-0.666,1.066-0.994,1.895-0.994c0.646,0,1.16,0.265,1.537,0.798
		c0.383,0.528,0.572,1.209,0.572,2.041c0,0.841-0.191,1.517-0.576,2.035c-0.383,0.507-0.904,0.766-1.568,0.766
		c-0.848,0-1.469-0.334-1.859-0.997v2.903h-0.627v-6.229c0-0.388-0.02-0.771-0.053-1.151h0.648
		C159.144,94.709,159.156,94.987,159.156,95.273z M159.156,97.176c0,0.629,0.146,1.145,0.436,1.548
		c0.289,0.405,0.715,0.606,1.279,0.606c0.504,0,0.898-0.204,1.182-0.609c0.283-0.412,0.428-0.961,0.428-1.64
		c0-0.662-0.135-1.197-0.4-1.606c-0.268-0.408-0.65-0.609-1.146-0.609c-0.561,0-0.992,0.196-1.307,0.588
		S159.156,96.419,159.156,97.176z"/>
	<path fill="#FFFFFF" d="M164.207,95.771c0.061-0.505,0.256-0.881,0.584-1.126c0.328-0.246,0.789-0.366,1.379-0.366
		c0.562,0,1.008,0.135,1.342,0.409c0.332,0.268,0.5,0.724,0.5,1.362v2.569c0,0.16,0.016,0.536,0.051,1.133h-0.648
		c-0.014-0.274-0.02-0.548-0.02-0.819c-0.072,0.229-0.268,0.449-0.588,0.664c-0.316,0.213-0.691,0.321-1.119,0.321
		c-0.5,0-0.908-0.147-1.23-0.446c-0.316-0.302-0.475-0.705-0.475-1.212c0-0.487,0.199-0.904,0.598-1.25
		c0.398-0.345,1.119-0.52,2.166-0.52h0.637v-0.51c0-0.361-0.102-0.639-0.301-0.825c-0.201-0.197-0.508-0.29-0.92-0.29
		c-0.4,0-0.705,0.072-0.912,0.223c-0.205,0.145-0.324,0.371-0.365,0.683H164.207z M167.383,97.075h-0.301
		c-0.971,0-1.617,0.104-1.941,0.313c-0.318,0.202-0.477,0.501-0.477,0.901c0,0.316,0.102,0.572,0.311,0.76s0.496,0.28,0.857,0.28
		c0.496,0,0.879-0.157,1.148-0.471c0.27-0.319,0.402-0.773,0.402-1.356V97.075z"/>
	<path fill="#FFFFFF" d="M170.301,99.752h-0.629v-4.169c0-0.231-0.018-0.609-0.051-1.14h0.648c0.02,0.302,0.031,0.576,0.031,0.829
		c0.391-0.666,0.953-0.994,1.688-0.994c0.598,0,1.051,0.188,1.359,0.562c0.311,0.38,0.465,0.917,0.465,1.619v3.292h-0.627v-3.4
		c0-0.474-0.121-0.841-0.363-1.101c-0.24-0.259-0.574-0.386-1-0.386c-0.48,0-0.857,0.166-1.125,0.506
		c-0.266,0.338-0.396,0.775-0.396,1.307V99.752z"/>
	<path fill="#FFFFFF" d="M174.744,94.444h0.766l1.766,4.443l1.771-4.443h0.68l-2.91,7.381h-0.689l0.803-2.048L174.744,94.444z"/>
</g>
</svg>
