<?xml version="1.0" encoding="utf-8"?>
<!-- Generator: Adobe Illustrator 16.2.1, SVG Export Plug-In . SVG Version: 6.00 Build 0)  -->
<!DOCTYPE svg PUBLIC "-//W3C//DTD SVG 1.1//EN" "http://www.w3.org/Graphics/SVG/1.1/DTD/svg11.dtd">
<svg version="1.1" id="Layer_1" xmlns="http://www.w3.org/2000/svg" xmlns:xlink="http://www.w3.org/1999/xlink" x="0px" y="0px"
	 width="139.058px" height="51.979px" viewBox="0 0 139.058 51.979" enable-background="new 0 0 139.058 51.979"
	 xml:space="preserve">
<path fill="#004E59" d="M46.996,42.437H42.98v2.528h3.3c0.094,0,0.188,0.068,0.188,0.174v0.691c0,0.104-0.094,0.174-0.175,0.174
	H42.98v3.571c0,0.083-0.069,0.177-0.176,0.177h-0.878c-0.081,0-0.175-0.084-0.175-0.177v-8.005c0-0.096,0.082-0.175,0.175-0.175
	h5.058c0.093,0,0.188,0.069,0.188,0.175v0.689C47.172,42.368,47.077,42.437,46.996,42.437"/>
<path fill="#004E59" d="M52.602,49.844h-0.703c-1.662,0-2.621-0.912-2.621-2.609v-3.323c0-1.663,0.959-2.599,2.621-2.599h0.703
	c1.685,0,2.621,0.936,2.621,2.599v3.323C55.223,48.932,54.287,49.844,52.602,49.844 M53.994,43.912c0-1.077-0.467-1.569-1.568-1.569
	h-0.351c-1.089,0-1.568,0.492-1.568,1.569v3.323c0,1.111,0.467,1.568,1.568,1.568h0.351c1.101,0,1.568-0.457,1.568-1.568V43.912z"/>
<path fill="#004E59" d="M63.205,49.752h-1.007c-0.082,0-0.21-0.07-0.257-0.177l-1.335-2.353c-0.046,0-0.092,0.012-0.128,0.012
	h-1.919v2.341c0,0.106-0.07,0.177-0.176,0.177h-0.877c-0.106,0-0.176-0.07-0.176-0.177v-8.005c0-0.096,0.07-0.175,0.176-0.175h3.136
	c1.685,0,2.621,0.923,2.621,2.608v0.61c0,1.216-0.491,2.046-1.403,2.397l1.45,2.563C63.369,49.682,63.3,49.752,63.205,49.752
	 M62.035,44.004c0-1.099-0.468-1.567-1.557-1.567h-1.919v3.743h1.907c1.101,0,1.569-0.465,1.569-1.565V44.004z"/>
<path fill="#004E59" d="M68.531,49.844h-0.703c-1.626,0-2.552-0.865-2.61-2.435c0-0.104,0.083-0.175,0.175-0.175h0.867
	c0.105,0,0.175,0.07,0.175,0.175c0.06,0.972,0.528,1.394,1.569,1.394h0.352c1.298,0,1.568-0.469,1.568-1.229V47.41
	c0-0.724-0.213-1.099-2.002-1.405c-2.305-0.385-2.621-1.474-2.621-2.338v-0.189c0-0.678,0.28-1.239,0.771-1.627
	c0.468-0.362,1.124-0.537,1.932-0.537h0.352c1.521,0,2.421,0.773,2.574,2.177c0.012,0.104-0.07,0.177-0.176,0.177h-0.865
	c-0.096,0-0.153-0.072-0.178-0.177c-0.117-0.795-0.596-1.147-1.533-1.147c-0.76,0-1.65,0.199-1.65,1.135v0.189
	c0,0.654,0.644,1.098,1.907,1.309c1.511,0.259,2.718,0.633,2.718,2.435v0.164C71.154,48.604,70.684,49.844,68.531,49.844"/>
<path fill="#004E59" d="M77.899,49.752h-3.494c-0.093,0-0.175-0.084-0.175-0.177v-0.69c0-0.094,0.069-0.176,0.175-0.176h1.146
	v-6.272h-0.971c-0.093,0-0.176-0.069-0.176-0.177v-0.689c0-0.096,0.071-0.175,0.176-0.175h3.143c0.084,0,0.176,0.069,0.176,0.175
	v0.689c0,0.107-0.081,0.177-0.176,0.177h-0.945v6.272h1.121c0.083,0,0.177,0.069,0.177,0.176v0.69
	C78.076,49.659,77.993,49.752,77.899,49.752"/>
<path fill="#004E59" d="M87.073,49.752h-0.9c-0.082,0-0.177-0.07-0.177-0.177v-2.002c0-1.101-0.469-1.569-1.557-1.569h-1.92v3.571
	c0,0.106-0.07,0.177-0.175,0.177h-0.879c-0.104,0-0.174-0.07-0.174-0.177v-8.005c0-0.096,0.069-0.175,0.174-0.175h0.879
	c0.094,0,0.175,0.069,0.175,0.175v3.395h1.885l0.995-3.395c0.033-0.096,0.105-0.175,0.199-0.175h0.971
	c0.083,0,0.117,0.079,0.094,0.175l-1.029,3.523c1.019,0.326,1.592,1.17,1.592,2.479v2.002
	C87.225,49.682,87.154,49.752,87.073,49.752"/>
<path fill="#004E59" d="M95.077,49.752h-1.006c-0.081,0-0.211-0.07-0.256-0.177l-1.335-2.353c-0.048,0-0.095,0.012-0.129,0.012
	H90.43v2.341c0,0.106-0.069,0.177-0.174,0.177h-0.879c-0.104,0-0.175-0.07-0.175-0.177v-8.005c0-0.096,0.07-0.175,0.175-0.175h3.137
	c1.687,0,2.621,0.923,2.621,2.608v0.61c0,1.216-0.491,2.046-1.403,2.397l1.452,2.563C95.242,49.682,95.172,49.752,95.077,49.752
	 M93.908,44.004c0-1.099-0.469-1.567-1.557-1.567H90.43v3.743h1.908c1.101,0,1.569-0.465,1.569-1.565V44.004z"/>
<path fill="#004E59" d="M101.808,49.752H98.31c-0.094,0-0.178-0.084-0.178-0.177v-0.69c0-0.094,0.07-0.176,0.178-0.176h1.145v-6.272
	h-0.97c-0.095,0-0.175-0.069-0.175-0.177v-0.689c0-0.096,0.068-0.175,0.175-0.175h3.147c0.082,0,0.176,0.069,0.176,0.175v0.689
	c0,0.107-0.082,0.177-0.176,0.177h-0.949v6.272h1.125c0.082,0,0.176,0.069,0.176,0.176v0.69
	C101.983,49.659,101.901,49.752,101.808,49.752"/>
<path fill="#004E59" d="M110.82,49.752h-0.867c-0.104,0-0.222-0.07-0.257-0.177l-3.395-5.829v5.829c0,0.083-0.082,0.177-0.174,0.177
	h-0.879c-0.094,0-0.188-0.084-0.188-0.177v-8.005c0-0.096,0.094-0.175,0.176-0.175h0.879c0.104,0,0.21,0.079,0.268,0.175
	l3.395,5.816v-5.816c0-0.096,0.082-0.175,0.175-0.175h0.867c0.095,0,0.187,0.069,0.187,0.175v8.005
	C111.007,49.659,110.925,49.752,110.82,49.752"/>
<path fill="#004E59" d="M116.355,49.844h-0.702c-1.662,0-2.622-0.924-2.622-2.621v-3.312c0-1.663,0.96-2.599,2.622-2.599h0.702
	c1.534,0,2.435,0.773,2.598,2.177c0,0.082-0.094,0.177-0.174,0.177H117.9c-0.093,0-0.175-0.084-0.175-0.177
	c-0.118-0.784-0.609-1.147-1.545-1.147h-0.353c-1.088,0-1.567,0.492-1.567,1.569v3.312c0,1.111,0.469,1.58,1.567,1.58h0.353
	c1.1,0,1.568-0.469,1.568-1.58v-1.219h-1.568c-0.084,0-0.176-0.07-0.176-0.174v-0.691c0-0.092,0.092-0.174,0.176-0.174h2.621
	c0.104,0,0.176,0.068,0.176,0.174v2.084C118.978,48.92,118.042,49.844,116.355,49.844"/>
<path fill="#82BC00" d="M16.626,22.074c2.554,2.38,3.905,3.449,4.549,4.147c1.16-0.426,3.591-1.596,4.405-3.925
	c0.928-2.646-0.693-4.462-2.092-5.901c-1.624-1.64-4.747-3.923-5.704-5.09c-0.985,0.605-3.128,1.46-4.037,4.055
	C12.653,18.483,14.474,20.071,16.626,22.074"/>
<path fill="#004E59" d="M10.677,21.409c-1.477-2.062-1.714-4.356-0.99-6.42c1.28-3.653,5.074-4.893,6.236-5.495
	c-0.226-0.347-0.616-0.859-0.887-1.577c-0.215-0.523-0.34-1.131-0.34-1.778c0-1.375,0.553-2.565,1.36-3.162
	C10.551,4.149,5.771,8.069,3.777,13.768c-3.045,8.687,1.531,18.197,10.218,21.24c0.794,0.281,1.598,0.496,2.404,0.649
	c2.019-0.297,2.652-1.14,3.129-2.5C21.049,28.814,13.491,25.248,10.677,21.409"/>
<path fill="#82BC00" d="M25.018,3.547c-0.911-0.318-1.831-0.492-2.752-0.648c-1.393,0.268-1.85,0.981-2.235,2.082
	c-1.671,4.763,6.353,7.755,8.867,11.606c1.23,1.917,1.574,4.071,0.906,5.975c-1.259,3.603-6.073,5.508-7.016,5.653
	c0.424,0.598,1.698,1.746,1.844,3.539c0.032,0.246,0.051,0.498,0.051,0.758c0,1.094-0.3,2.088-0.79,2.843
	c5.105-1.397,9.463-5.193,11.345-10.565C38.281,16.1,33.708,6.592,25.018,3.547"/>
<path fill="#004E59" d="M60.105,2.834c-0.953,0-1.76,0.805-1.76,1.759c0,0,0,9.494,0,11.345c-1.652,0-8.231,0-9.883,0
	c0-1.851,0-11.345,0-11.345c0-1.003-0.757-1.759-1.761-1.759h-3.223c-0.955,0-1.76,0.805-1.76,1.759V33.98
	c0,0.938,0.821,1.762,1.76,1.762h3.223c0.955,0,1.761-0.808,1.761-1.762c0,0,0-10.118,0-11.986c1.655,0,8.271,0,9.926,0
	c0,1.868,0,11.986,0,11.986c0,0.987,0.773,1.762,1.76,1.762h3.222c0.937,0,1.758-0.823,1.758-1.762V4.593
	c0-0.985-0.791-1.759-1.801-1.759H60.105"/>
<path fill="#004E59" d="M70.336,2.834c-0.954,0-1.762,0.805-1.762,1.759V33.98c0,0.938,0.823,1.762,1.762,1.762h16.803
	c0.921,0,1.76-0.839,1.76-1.762v-2.535c0-0.972-0.809-1.761-1.803-1.761c0,0-9.916,0-11.778,0c0-1.534,0-6.154,0-7.69
	c1.778,0,9.244,0,9.244,0c0.921,0,1.758-0.839,1.758-1.762V17.7c0-0.972-0.808-1.762-1.802-1.762c0,0-7.426,0-9.2,0
	c0-1.491,0-5.558,0-7.05c1.862,0,11.821,0,11.821,0c0.953,0,1.76-0.807,1.76-1.759V4.593c0-0.97-0.809-1.759-1.803-1.759H70.336"/>
<path fill="#004E59" d="M93.924,2.834c-0.938,0-1.76,0.822-1.76,1.759V33.98c0,0.954,0.825,1.762,1.803,1.762h14.095
	c0.954,0,1.76-0.808,1.76-1.762v-2.535c0-0.987-0.772-1.761-1.76-1.761c0,0-7.384,0-9.157,0c0-2.046,0-25.091,0-25.091
	c0-0.985-0.773-1.759-1.758-1.759H93.924"/>
<path fill="#004E59" d="M125.419,2.834h-11.514c-0.938,0-1.76,0.822-1.76,1.759V33.98c0,0.938,0.822,1.762,1.76,1.762h3.225
	c0.935,0,1.758-0.823,1.758-1.762c0,0,0-5.787,0-7.478c1.627,0,6.531,0,6.531,0c6.825,0,10.74-3.897,10.74-10.695v-2.233
	C136.159,6.749,132.244,2.834,125.419,2.834 M129.372,15.786c0,3.493-1.158,4.663-4.598,4.663c0,0-4.311,0-5.887,0V8.888
	c1.576,0,5.887,0,5.887,0c3.426,0,4.643,1.226,4.643,4.682C129.417,13.607,129.372,15.786,129.372,15.786z"/>
</svg>
