<?xml version="1.0" encoding="UTF-8"?>
<svg width="20px" height="20px" viewBox="0 0 20 20" version="1.1" xmlns="http://www.w3.org/2000/svg" xmlns:xlink="http://www.w3.org/1999/xlink">
    <!-- Generator: sketchtool 43.2 (39069) - http://www.bohemiancoding.com/sketch -->
    <title>EA873ED3-8648-4D20-8FA8-68BD6C1A8CFA</title>
    <desc>Created with sketchtool.</desc>
    <defs></defs>
    <g id="Desktop" stroke="none" stroke-width="1" fill="none" fill-rule="evenodd">
        <g id="Icons" transform="translate(-62.000000, -150.000000)" fill-rule="nonzero" fill="#313640">
            <g id="misc." transform="translate(56.000000, 144.000000)">
                <g id="close">
                    <path d="M17.4144341,16 L25.7011864,7.71324769 C26.0955476,7.31888643 26.1013318,6.68528471 25.7080236,6.29197644 C25.3174384,5.90139126 24.6800041,5.90556185 24.2867523,6.29881362 L16,14.5855659 L7.71324769,6.29881362 C7.31888643,5.90445237 6.68528471,5.89866817 6.29197644,6.29197644 C5.90139126,6.68256162 5.90556185,7.31999592 6.29881362,7.71324769 L14.5855659,16 L6.29881362,24.2867523 C5.90445237,24.6811136 5.89866817,25.3147153 6.29197644,25.7080236 C6.68256162,26.0986087 7.31999592,26.0944381 7.71324769,25.7011864 L16,17.4144341 L24.2867523,25.7011864 C24.6811136,26.0955476 25.3147153,26.1013318 25.7080236,25.7080236 C26.0986087,25.3174384 26.0944381,24.6800041 25.7011864,24.2867523 L17.4144341,16 Z"></path>
                </g>
            </g>
        </g>
    </g>
</svg>