<?xml version="1.0" encoding="UTF-8"?>
<svg width="45px" height="39px" viewBox="0 0 45 39" version="1.1" xmlns="http://www.w3.org/2000/svg" xmlns:xlink="http://www.w3.org/1999/xlink">
    <!-- Generator: sketchtool 43.2 (39069) - http://www.bohemiancoding.com/sketch -->
    <title>B8E57886-52C8-4F4F-94E0-888D0B596FF0</title>
    <desc>Created with sketchtool.</desc>
    <defs></defs>
    <g id="Desktop" stroke="none" stroke-width="1" fill="none" fill-rule="evenodd">
        <g id="Icons" transform="translate(-258.000000, -53.000000)">
            <g id="two_colours" transform="translate(40.000000, 40.000000)">
                <g id="credit_card_insecure" transform="translate(208.000000, 0.000000)">
                    <g transform="translate(10.000000, 13.000000)">
                        <path d="M44,10 L1,10 C0.448,10 0,9.553 0,9 C0,8.448 0.448,8 1,8 L44,8 C44.552,8 45,8.448 45,9 C45,9.553 44.552,10 44,10" id="Fill-292" fill="#313640"></path>
                        <path d="M44,17 L1,17 C0.448,17 0,16.553 0,16 C0,15.448 0.448,15 1,15 L44,15 C44.552,15 45,15.448 45,16 C45,16.553 44.552,17 44,17" id="Fill-293" fill="#313640"></path>
                        <path d="M23,33 L5,33 C2.243,33 0,30.757 0,28 L0,5 C0,2.244 2.243,0 5,0 L40,0 C42.757,0 45,2.244 45,5 L45,19 C45,19.553 44.552,20 44,20 C43.448,20 43,19.553 43,19 L43,5 C43,3.346 41.654,2 40,2 L5,2 C3.346,2 2,3.346 2,5 L2,28 C2,29.655 3.346,31 5,31 L23,31 C23.552,31 24,31.448 24,32 C24,32.553 23.552,33 23,33" id="Fill-291" fill="#313640"></path>
                        <polygon id="Fill-294" fill="#313640" points="24 14 26 14 26 11 24 11"></polygon>
                        <polygon id="Fill-295" fill="#313640" points="28 14 30 14 30 11 28 11"></polygon>
                        <polygon id="Fill-296" fill="#313640" points="32 14 34 14 34 11 32 11"></polygon>
                        <polygon id="Fill-297" fill="#313640" points="36 14 38 14 38 11 36 11"></polygon>
                        <path d="M31,31 L31,36 C31,36.552 31.449,37 32,37 L40,37 C40.551,37 41,36.552 41,36 L41,31 L31,31 Z M40,39 L32,39 C30.346,39 29,37.655 29,36 L29,29 L43,29 L43,36 C43,37.655 41.654,39 40,39 L40,39 Z" id="Fill-298" fill="#74BE3E"></path>
                        <path d="M41.243,30.777 C41.132,30.777 41.02,30.758 40.91,30.72 C40.389,30.537 40.116,29.965 40.299,29.445 C40.873,27.819 40.456,25.981 39.237,24.763 C38.387,23.913 37.257,23.445 36.056,23.445 C34.854,23.445 33.724,23.913 32.874,24.763 C32.483,25.154 31.85,25.154 31.459,24.763 C31.069,24.373 31.069,23.74 31.459,23.349 C32.687,22.122 34.319,21.445 36.056,21.445 C37.792,21.445 39.424,22.122 40.651,23.349 C42.411,25.108 43.013,27.762 42.186,30.109 C42.041,30.52 41.655,30.777 41.243,30.777" id="Fill-299" fill="#74BE3E"></path>
                    </g>
                </g>
            </g>
        </g>
    </g>
</svg>